/* XPM */
static char *konsole[] = {
/* columns rows colors chars-per-pixel */
"22 22 221 2",
"   c #1C1F20",
".  c #1D1F20",
"X  c #1D2223",
"o  c #1E2223",
"O  c #252A2B",
"+  c #272B2B",
"@  c #282C2C",
"#  c #292D2D",
"$  c #292E2E",
"%  c #2A2E2E",
"&  c #2B2F2F",
"*  c #2A3131",
"=  c #2B3133",
"-  c #2C3030",
";  c #2D3031",
":  c #2E3131",
">  c #2C3132",
",  c #2D3232",
"<  c #2E3232",
"1  c #2F3332",
"2  c #2E3436",
"3  c #2F3436",
"4  c #2F3537",
"5  c #303333",
"6  c #313434",
"7  c #303435",
"8  c #313535",
"9  c #303537",
"0  c #323636",
"q  c #323737",
"w  c #303638",
"e  c #313738",
"r  c #313739",
"t  c #333738",
"y  c #33393B",
"u  c #343839",
"i  c #363A3A",
"p  c #373A3A",
"a  c #353A3C",
"s  c #383C3C",
"d  c #393D3D",
"f  c #3A3D3D",
"g  c #383E3F",
"h  c #393E3F",
"j  c #3A3E3E",
"k  c #3B4142",
"l  c #3C4040",
"z  c #3E4141",
"x  c #3E4241",
"c  c #3D4243",
"v  c #3E4242",
"b  c #3E4344",
"n  c #434441",
"m  c #414544",
"M  c #424544",
"N  c #404646",
"B  c #424646",
"V  c #424747",
"C  c #454847",
"Z  c #424748",
"A  c #434848",
"S  c #444949",
"D  c #464948",
"F  c #454A4A",
"G  c #474A4A",
"H  c #474B4A",
"J  c #464B4B",
"K  c #494D4B",
"L  c #494C4C",
"P  c #484D4D",
"I  c #4A4F4F",
"U  c #4C4F4E",
"Y  c #4E514F",
"T  c #4D5251",
"R  c #4E5250",
"E  c #4F5352",
"W  c #505352",
"Q  c #515352",
"!  c #525553",
"~  c #535655",
"^  c #525756",
"/  c #555756",
"(  c #555856",
")  c #565956",
"_  c #565A59",
"`  c #575B5A",
"'  c #595B59",
"]  c #585C5B",
"[  c #5A5C5A",
"{  c #5A5E5D",
"}  c #5B5F5E",
"|  c #5B5F5F",
" . c #5D5F5C",
".. c #5F615C",
"X. c #5D615F",
"o. c #5E615E",
"O. c #5F625E",
"+. c #60625F",
"@. c #62645F",
"#. c #5C6161",
"$. c #5F6362",
"%. c #616461",
"&. c #616462",
"*. c #626562",
"=. c #656762",
"-. c #646765",
";. c #646766",
":. c #666865",
">. c #696B66",
",. c #656968",
"<. c #676B68",
"1. c #666A69",
"2. c #686B68",
"3. c #696B69",
"4. c #696C68",
"5. c #6B6C6B",
"6. c #6C6E69",
"7. c #6C6F6B",
"8. c #6B6F6E",
"9. c #6D6F6C",
"0. c #6C6F6D",
"q. c #6D706C",
"w. c #6C706E",
"e. c #70726D",
"r. c #6D7171",
"t. c #707271",
"y. c #707371",
"u. c #717470",
"i. c #727470",
"p. c #737570",
"a. c #717473",
"s. c #747571",
"d. c #747672",
"f. c #757772",
"g. c #767773",
"h. c #727575",
"j. c #747775",
"k. c #757775",
"l. c #777973",
"z. c #757874",
"x. c #757875",
"c. c #777974",
"v. c #777975",
"b. c #777976",
"n. c #797A76",
"m. c #797B77",
"M. c #767978",
"N. c #777A79",
"B. c #797A78",
"V. c #7A7C78",
"C. c #7C7F7A",
"Z. c #7B7E7C",
"A. c #7C7E7C",
"S. c #7C7F7E",
"D. c #7E807B",
"F. c #7E807C",
"G. c #7F817C",
"H. c #7F827D",
"J. c #8AE234",
"K. c #80827E",
"L. c #81837E",
"P. c #81837F",
"I. c #82847F",
"U. c #818280",
"Y. c #808380",
"T. c #828580",
"R. c #838581",
"E. c #818482",
"W. c #848681",
"Q. c #848682",
"!. c #858782",
"~. c #848784",
"^. c #868883",
"/. c #878884",
"(. c #878984",
"). c #868986",
"_. c #888A85",
"`. c #888A86",
"'. c #898B88",
"]. c #8B8D89",
"[. c #8B8D8B",
"{. c #8C8F8B",
"}. c #8F908C",
"|. c #90928F",
" X c #949693",
".X c #969893",
"XX c #969894",
"oX c #999A97",
"OX c #9A9C99",
"+X c #9E9F9B",
"@X c #9EA09B",
"#X c #A4A6A2",
"$X c #A6A7A2",
"%X c #ACAEA9",
"&X c #ADAEAA",
"*X c #B3B4B0",
"=X c #B4B5B1",
"-X c #B8BAB7",
";X c #B9BBB7",
":X c #BBBDB8",
">X c #C2C3BF",
",X c #C3C4C0",
"<X c #C6C7C3",
"1X c #C8CAC5",
"2X c #C9CAC6",
"3X c #CBCDC8",
"4X c #CCCECA",
"5X c #CED0CB",
"6X c #CFD1CC",
"7X c #D1D2CE",
"8X c #D3D5D0",
"9X c #D4D5D1",
"0X c #D5D6D2",
"qX c #D5D7D2",
"wX c #D5D7D3",
"eX c #D6D7D3",
"rX c #EEEEEC",
"tX c #EFEFED",
"yX c #F0F0EE",
"uX c #F0F0EF",
"iX c None",
/* pixels */
"iXiXiXiXiXiXiXiXiXiXiXiXiXiXiXiXiXiXiXiXiXiX",
"iXiXiXiXiXiXiXiXiXiXiXiXiXiXiXiXiXiXiXiXiXiX",
"iXiXw 2 2 2 2 2 2 2 2 2 2 2 2 2 9 2 2 9 iXiX",
"iXw 4XeXeXeXeXeXeXeXeX8XeX7X5X3X2X<X>X;Xw iX",
"iX2 eXT + @ # # # & & 1 1 1 1 1 5 9 Y ;X2 iX",
"iX2 eX1  .O.+.O. .' / Q L G B v h w f *X2 iX",
"iX2 eXp V.oXOXoX X X[.).U.S.M.h.r.G B %X2 iX",
"iX2 7Xv *.P.R.U.S.b.k.t.8.3.;.&.{ i K #X2 iX",
"iX2 5XC b.[.uX}.`.~.Y.S.b.t.8.<.#.B ! @X2 iX",
"iX2 1XY ] 7.w.tX3.<.;.&.#./ G v h w [ .X2 iX",
"iX2 >X( <.j.z.z.tXr.0.:.{ ^ T P Z v *.}.2 iX",
"iX2 ;Xo.Y ( ( tX/ Q L G B v h i 9 1 >.^.2 iX",
"iX2 =X:._ { rX] ] tXrXrXL G A c g y s.H.2 iX",
"iX2 &Xq.v v v v v j j h i u 2 = # + m.b.2 iX",
"iX2 $Xb.A G A G A S b b k g i u 2 2 P.b.2 iX",
"iX2 @XD.H.H.H.H.I.I.R.R.R.R.^.^.^.^.n.l.2 iX",
"iX2  XJ.J.l.e.e.6.>.=.@.....n n ..n n g.2 iX",
"iX2 `.].`.!.I.K.V.b.g.g.s.s.g.e.g.e.e.q.2 iX",
"iX= 9 2 2 2 9 2 2 2 2 2 2 2 2 2 2 2 2 2 = iX",
"iXiXX X   . . .         X           X . iXiX",
"iXiXiXiXiXiXiXiXiXiXiXiXiXiXiXiXiXiXiXiXiXiX",
"iXiXiXiXiXiXiXiXiXiXiXiXiXiXiXiXiXiXiXiXiXiX"
};
